{
    "asset" : {
        "generator" : "Khronos glTF Blender I/O v3.3.32",
        "version" : "2.0"
    },
    "scene" : 0,
    "scenes" : [
        {
            "name" : "Scene",
            "nodes" : [
                0
            ]
        }
    ],
    "nodes" : [
        {
            "mesh" : 0,
            "name" : "ajax",
            "scale" : [
                0.4140409231185913,
                0.4140409231185913,
                0.4140409231185913
            ],
            "translation" : [
                -0.825042724609375,
                1.9749724864959717,
                5.048864364624023
            ]
        }
    ],
    "meshes" : [
        {
            "name" : "ajax",
            "primitives" : [
                {
                    "attributes" : {
                        "POSITION" : 0,
                        "NORMAL" : 1
                    },
                    "indices" : 2
                }
            ]
        }
    ],
    "accessors" : [
        {
            "bufferView" : 0,
            "componentType" : 5126,
            "count" : 106632,
            "max" : [
                29.259475708007812,
                158.39239501953125,
                32.6982536315918
            ],
            "min" : [
                -26.070592880249023,
                -1.6210206747055054,
                -43.13372039794922
            ],
            "type" : "VEC3"
        },
        {
            "bufferView" : 1,
            "componentType" : 5126,
            "count" : 106632,
            "type" : "VEC3"
        },
        {
            "bufferView" : 2,
            "componentType" : 5125,
            "count" : 106632,
            "type" : "SCALAR"
        }
    ],
    "bufferViews" : [
        {
            "buffer" : 0,
            "byteLength" : 1279584,
            "byteOffset" : 0,
            "target" : 34962
        },
        {
            "buffer" : 0,
            "byteLength" : 1279584,
            "byteOffset" : 1279584,
            "target" : 34962
        },
        {
            "buffer" : 0,
            "byteLength" : 426528,
            "byteOffset" : 2559168,
            "target" : 34963
        }
    ],
    "buffers" : [
        {
            "byteLength" : 2985696,
            "uri" : "data:application/octet-stream;base64,"
        }
    ]
}
